<svg width="101" height="67" viewBox="0 0 101 67" fill="none" xmlns="http://www.w3.org/2000/svg">
<path d="M42.7422 0.78125V58.1772H68.5362C77.7562 58.1772 94.8612 52.4553 97.3612 34.2083C99.8402 16.1183 88.3702 0.78125 68.1832 0.78125H42.7422Z" fill="#5049CA"/>
<mask id="mask0_4059_1000" style="mask-type:alpha" maskUnits="userSpaceOnUse" x="42" y="0" width="56" height="59">
<path d="M42.7422 0.78125V58.1772H68.5362C77.7562 58.1772 94.8612 52.4553 97.3612 34.2083C99.8402 16.1183 88.3702 0.78125 68.1832 0.78125H42.7422Z" fill="black"/>
</mask>
<g mask="url(#mask0_4059_1000)">
<path d="M91.59 74.0513C78.34 50.9213 62.273 23.9112 49.023 0.78125H31.751L40.388 71.6093L91.59 74.0513Z" fill="#3B35A8"/>
<path d="M60.6831 34.5022L78.3181 31.9652L71.6161 27.5852L70.3721 19.2852L60.6831 34.5022Z" fill="#FFCCAF"/>
</g>
<path d="M31.421 9.33008L0.000976562 66.7261H62.281L31.421 9.33008Z" fill="#0F0D1B"/>
<path d="M37.925 43.5244L23.209 46.4084L29.029 49.8044L30.429 56.7284L37.925 43.5244Z" fill="#FFCCAF"/>
</svg>
