<svg width="78" height="90" viewBox="0 0 78 90" fill="none" xmlns="http://www.w3.org/2000/svg">
<g clip-path="url(#clip0_4059_1016)">
<mask id="mask0_4059_1016" style="mask-type:luminance" maskUnits="userSpaceOnUse" x="0" y="0" width="78" height="90">
<path d="M0 0H77.1429V90H0V0Z" fill="white"/>
</mask>
<g mask="url(#mask0_4059_1016)">
<path d="M41.1895 21.0817L51.4868 49.8684H36.9133L30.8049 31.0725L24.7833 37.5067L22.5145 49.868H9.3375L18.413 0H31.6776L28.0121 19.3886L28.3616 19.4729L45.1165 0H59.6897L41.1895 21.0817ZM67.631 70.8658C72.8361 70.8658 77.0557 66.772 77.0557 61.7219C77.0557 56.6719 72.8361 52.5777 67.631 52.5777C62.4258 52.5777 58.2063 56.6719 58.2063 61.7219C58.2063 66.772 62.4258 70.8658 67.631 70.8658ZM29.4959 90C18.675 90 8.20286 86.1903 0 79.1626L9.59906 68.5796C15.0971 73.3207 22.1653 75.9455 29.4955 75.9455C37.4372 75.9455 44.9417 72.9824 50.6142 67.5635L60.7367 77.5543C52.3595 85.5972 41.2767 90 29.4959 90Z" fill="black"/>
</g>
</g>
<defs>
<clipPath id="clip0_4059_1016">
<rect width="77.1429" height="90" fill="white"/>
</clipPath>
</defs>
</svg>
