<svg width="74" height="74" viewBox="0 0 74 74" fill="none" xmlns="http://www.w3.org/2000/svg">
<g clip-path="url(#clip0_4059_1011)">
<path d="M44.6275 3.5742L58.1196 0L61.6938 13.4921L48.2018 17.0663L44.6275 3.5742ZM29.7517 7.5147L43.2438 3.9405L46.8179 17.4326L33.3259 21.0067L29.7517 7.5147ZM14.8759 11.4552L28.3679 7.881L31.9421 21.3731L18.45 24.9472L14.8759 11.4552ZM0 15.3957L13.4921 11.8215L17.0663 25.3135L3.5742 28.8877L0 15.3957ZM48.5681 18.45L62.0601 14.8759L65.6343 28.3679L52.1422 31.9421L48.5681 18.45ZM33.6922 22.3905L47.1842 18.8163L50.7585 32.3084L37.2664 35.8826L33.6922 22.3905ZM18.8163 26.331L32.3084 22.7568L35.8826 36.2489L22.3905 39.8231L18.8163 26.331ZM3.9405 30.2716L17.4326 26.6973L21.0067 40.1894L7.5147 43.7636L3.9405 30.2716ZM52.5085 33.3259L66.0006 29.7517L69.5748 43.2438L56.0828 46.8179L52.5085 33.3259ZM37.6327 37.2664L51.1248 33.6922L54.6989 47.1842L41.2069 50.7585L37.6327 37.2664ZM22.7568 41.2087L36.2489 37.6327L39.8231 51.1248L26.331 54.6989L22.7568 41.2087ZM7.881 45.1474L21.3731 41.5732L24.9472 55.0652L11.4552 58.6395L7.881 45.1474Z" fill="#1F0905"/>
<path d="M11.8218 60.0236L25.3138 56.4494L28.888 69.9415L15.396 73.5157L11.8218 60.0236ZM26.6976 56.0831L69.9414 44.6279L73.5156 58.12L30.2737 69.5752L26.6976 56.0831Z" fill="#FF6741"/>
<path d="M6.57998 24.0203L5.02783 18.1669L6.55593 17.7617L7.15348 20.0206L9.57143 19.3805L8.97388 17.1216L10.4927 16.7202L12.043 22.5717L10.5223 22.975L9.90258 20.6348L7.48648 21.273L8.10808 23.6151L6.57998 24.0203ZM22.1681 19.8911L20.6178 14.0358L24.7525 12.9406L25.0652 14.1191L22.3919 14.8276L22.6861 15.9413L25.1688 15.2827L25.4814 16.463L22.9987 17.1198L23.3169 18.3241L25.9902 17.6156L26.3028 18.794L22.1681 19.8911ZM38.7293 15.5029L38.0392 12.8999L34.9109 10.2211L36.6702 9.75494L38.4684 11.3219L39.2547 9.07044L40.9641 8.61719L39.5729 12.4948L40.2629 15.0959L38.7293 15.5029ZM54.2027 12.7815L53.5311 12.4874C53.7494 12.11 53.8604 11.777 53.8623 11.4939L53.1648 11.6789L52.7652 10.1675L54.3007 9.76049L54.5523 10.7151C54.6467 11.0647 54.6652 11.3959 54.6134 11.7122C54.569 12.0323 54.4302 12.3893 54.2027 12.7815ZM13.6507 37.9785C12.981 38.1561 12.3779 38.1839 11.8395 38.0581C11.3271 37.9434 10.8609 37.677 10.5001 37.294C10.1375 36.9111 9.87853 36.419 9.71943 35.8214C9.55478 35.1998 9.53998 34.63 9.67503 34.1102C9.81008 33.5848 10.1005 33.113 10.5057 32.7523C10.9201 32.3749 11.4695 32.0955 12.1503 31.9161C12.5462 31.8088 12.9551 31.7607 13.3658 31.7718C13.7635 31.7792 14.1039 31.8439 14.3833 31.9642L14.2316 33.2666C13.6729 33.0816 13.0716 33.0631 12.5037 33.2185C11.945 33.3665 11.5676 33.6255 11.3678 33.9973C11.1772 34.3692 11.155 34.8372 11.3049 35.4015C11.4547 35.9657 11.7063 36.3561 12.0597 36.5707C12.4112 36.7853 12.8607 36.8204 13.4028 36.6761C13.6562 36.6095 13.9319 36.4948 14.2279 36.3339L13.9818 35.4107L12.8126 35.7215L12.5277 34.6504L14.9438 34.0103L15.7227 36.9499C15.4304 37.1886 15.1122 37.3921 14.7736 37.5567C14.4147 37.7343 14.0373 37.8768 13.6507 37.9785ZM17.5912 52.8544C16.9215 53.032 16.3184 53.0579 15.7819 52.9339C15.2676 52.8192 14.8014 52.5528 14.4406 52.1699C14.0799 51.7851 13.8172 51.2948 13.6599 50.6973C13.4953 50.0775 13.4805 49.5059 13.6155 48.986C13.7524 48.4606 14.041 47.987 14.4462 47.6281C14.8624 47.2507 15.41 46.9732 16.0908 46.7919C16.4867 46.6846 16.8956 46.6365 17.3063 46.6476C17.704 46.655 18.0444 46.7198 18.3256 46.84L18.1721 48.1424C17.6134 47.9574 17.0121 47.9408 16.4442 48.0943C15.8855 48.2423 15.5081 48.5013 15.3101 48.875C15.1177 49.245 15.0955 49.7131 15.2454 50.2773C15.3952 50.8416 15.6468 51.2319 16.0002 51.4447C16.3535 51.6593 16.7994 51.6944 17.3433 51.552C17.63 51.4706 17.9075 51.3559 18.1665 51.2079L17.9223 50.2884L16.7531 50.5974L16.4682 49.5262L18.8843 48.8861L19.6632 51.8258C19.3709 52.0644 19.0527 52.2679 18.7141 52.4326C18.3552 52.6102 17.9778 52.7526 17.5912 52.8544ZM28.1991 34.125C27.6052 34.2822 27.0521 34.2952 26.5378 34.1638C26.0346 34.0306 25.5776 33.7568 25.2187 33.3776C24.8506 32.9891 24.586 32.4933 24.4251 31.8902C24.2641 31.2815 24.2456 30.721 24.3714 30.2067C24.4935 29.6998 24.7599 29.2373 25.1373 28.8765C25.5203 28.5084 26.0068 28.2457 26.5988 28.0884C27.1927 27.9312 27.7421 27.9201 28.2509 28.0514C28.7652 28.1809 29.2073 28.4399 29.5755 28.8284C29.9436 29.2114 30.2082 29.7072 30.371 30.3158C30.5301 30.9189 30.5467 31.4813 30.4172 31.9993C30.2933 32.5099 30.0287 32.9743 29.6513 33.3406C29.2758 33.7069 28.7911 33.9677 28.1991 34.125ZM27.8605 32.8466C28.2916 32.7319 28.5894 32.4896 28.7522 32.1214C28.9187 31.7459 28.9298 31.2834 28.7855 30.7358C28.6394 30.1882 28.4044 29.7941 28.0807 29.5536C27.7569 29.3131 27.3758 29.2521 26.9392 29.3668C26.5008 29.4833 26.2011 29.7257 26.0383 30.0938C25.8755 30.4638 25.8662 30.9226 26.0124 31.4702C26.1567 32.0178 26.3916 32.4156 26.7172 32.6598C27.041 32.9003 27.4221 32.9613 27.8605 32.8466ZM28.7689 49.7963L29.9584 43.2159L31.1609 42.8977L35.4529 48.0259L33.9248 48.431L33.1034 47.3765L30.4875 48.0703L30.297 49.3912L28.7689 49.7963ZM30.9704 44.6552L30.6762 46.7679L32.2876 46.3405L30.987 44.6496L30.9704 44.6552ZM43.3913 30.0032C42.8215 30.153 42.2905 30.1641 41.7947 30.0365C41.3082 29.9014 40.8679 29.635 40.5238 29.265C40.1686 28.8858 39.9114 28.4011 39.756 27.8146C39.5988 27.2208 39.5803 26.675 39.6987 26.1755C39.8134 25.6834 40.0668 25.2339 40.4313 24.8824C40.7976 24.5253 41.2638 24.2719 41.8336 24.122C42.4015 23.9703 42.9306 23.9611 43.419 24.0906C43.9093 24.2164 44.3533 24.4809 44.6955 24.8528C45.0507 25.2265 45.3079 25.7093 45.4651 26.3013C45.6205 26.8896 45.6372 27.4372 45.5151 27.9423C45.3985 28.4362 45.1451 28.8876 44.7843 29.2428C44.4236 29.5999 43.9592 29.8515 43.3913 30.0032ZM43.0601 28.7563C43.4745 28.6471 43.7594 28.4122 43.9148 28.0533C44.0739 27.6888 44.0832 27.2393 43.9407 26.7065C43.8001 26.1718 43.5744 25.787 43.2618 25.5521C42.9491 25.3171 42.5828 25.2561 42.1629 25.3671C41.7429 25.4799 41.4543 25.713 41.2989 26.0719C41.1435 26.4308 41.138 26.8767 41.2786 27.4113C41.421 27.9441 41.6486 28.3308 41.9612 28.5713C42.2739 28.8062 42.6402 28.8673 43.0601 28.7563ZM44.1313 45.7263L42.5736 39.8452L43.8038 39.5196L46.5085 42.4093L47.428 38.5594L48.6268 38.2412L50.1845 44.1224L48.8488 44.4776L48.0015 41.2808L47.3225 43.9522L46.5178 44.1668L44.6289 42.2113L45.467 45.373L44.1313 45.7263ZM55.0666 26.9081L53.5089 21.0288L55.9713 20.3758C56.9999 20.1038 57.8638 20.1482 58.5687 20.509C59.2698 20.8716 59.7471 21.5191 59.9932 22.4533C60.2411 23.3876 60.1504 24.1886 59.7194 24.8565C59.2865 25.5188 58.5576 25.985 57.529 26.2569L55.0666 26.9081ZM56.2876 25.2561L57.0979 25.0415C57.6881 24.8842 58.0858 24.6308 58.293 24.2774C58.5058 23.9185 58.5354 23.4523 58.3837 22.8788C58.232 22.3072 57.9767 21.9187 57.6159 21.717C57.2552 21.5154 56.7834 21.4913 56.1988 21.6467L55.3885 21.8613L56.2876 25.2561ZM59.7564 41.5879L58.2061 35.7345L62.339 34.6374L62.6516 35.8177L59.9784 36.5244L60.2725 37.6381L62.7552 36.9795L63.0679 38.1598L60.5852 38.8166L60.9034 40.0209L63.5766 39.3124L63.8893 40.4908L59.7564 41.5879Z" fill="white"/>
</g>
<defs>
<clipPath id="clip0_4059_1011">
<rect width="74" height="74" fill="white"/>
</clipPath>
</defs>
</svg>
