<svg width="475" height="79" viewBox="0 0 475 79" fill="none" xmlns="http://www.w3.org/2000/svg">
<g clip-path="url(#clip0_16865_73901)">
<path d="M0.845947 77.707V25.095H38.8429V77.707H28.1259V34.838H11.5629V77.707H0.845947ZM43.6919 25.095H87.0469V77.707H76.3299V74.979C73.6019 77.317 69.8999 78.681 65.6129 78.681C55.4799 78.681 49.0499 71.374 49.0499 59.878C49.0499 48.576 55.4799 41.464 65.6129 41.464C69.8999 41.464 73.6029 42.73 76.3299 45.068V34.351H43.6919V25.095ZM68.5359 68.938C73.9919 68.938 77.4019 65.431 77.3049 59.878C77.2069 54.324 73.7969 50.719 68.5359 50.719C63.1769 50.719 59.7669 54.324 59.7669 59.877C59.7669 65.431 63.1769 68.938 68.5359 68.938ZM103.089 77.707V34.351H91.8849V25.095H103.089V7.55804H113.806V25.095H136.215V34.351H113.806V67.964H130.369V77.707H103.089ZM162.483 68.938C167.159 68.938 171.543 65.723 173.589 60.657L182.456 65.528C178.851 73.518 171.056 78.681 162.483 78.681C147.868 78.681 138.612 68.061 138.612 51.401C138.612 34.741 147.479 24.121 161.508 24.121C175.538 24.121 184.404 36.3 184.404 55.298H149.525C150.694 63.775 155.468 68.938 162.483 68.938ZM161.508 33.864C155.175 33.864 150.791 38.833 149.622 47.017H173.395C172.225 38.833 167.841 33.864 161.508 33.864ZM260.429 25.095L240.456 47.017H255.07V77.707H244.353V56.273H227.79V77.707H217.073V0.738037H227.79V47.017L247.276 25.095H260.429ZM259.919 25.095H303.275V77.707H292.558V74.979C289.83 77.317 286.127 78.681 281.841 78.681C271.708 78.681 265.278 71.374 265.278 59.878C265.278 48.576 271.708 41.464 281.841 41.464C286.127 41.464 289.83 42.73 292.558 45.068V34.351H259.919V25.095ZM284.763 68.938C290.22 68.938 293.63 65.431 293.532 59.878C293.435 54.324 290.025 50.719 284.763 50.719C279.405 50.719 275.995 54.324 275.995 59.877C275.995 65.431 279.405 68.938 284.763 68.938ZM345.135 0.738037H355.852V77.707H345.135V72.251C341.628 76.343 336.756 78.681 331.008 78.681C318.537 78.681 310.548 68.061 310.548 51.401C310.548 34.741 318.537 24.121 331.008 24.121C336.756 24.121 341.628 26.459 345.135 30.551V0.738037ZM333.444 68.938C340.848 68.938 345.622 62.118 345.622 51.401C345.622 40.684 340.848 33.864 333.444 33.864C325.942 33.864 321.265 40.684 321.265 51.401C321.265 62.118 326.039 68.938 333.444 68.938ZM365.553 77.707V0.738037H376.271V77.707H365.553ZM381.188 25.095H424.544V77.707H413.826V74.979C411.098 77.317 407.396 78.681 403.109 78.681C392.977 78.681 386.546 71.374 386.546 59.878C386.546 48.576 392.977 41.464 403.109 41.464C407.396 41.464 411.098 42.73 413.826 45.068V34.351H381.188V25.095ZM406.032 68.938C411.488 68.938 414.898 65.431 414.801 59.878C414.703 54.324 411.293 50.719 406.032 50.719C400.673 50.719 397.263 54.324 397.263 59.877C397.263 65.431 400.673 68.938 406.032 68.938ZM454.712 78.681C440.682 78.681 431.816 68.061 431.816 51.401C431.816 34.741 440.682 24.121 454.712 24.121C463.286 24.121 470.885 29.48 474.198 37.761L465.332 42.633C463.578 37.274 459.389 33.864 454.712 33.864C447.308 33.864 442.534 40.684 442.534 51.401C442.534 62.118 447.308 68.938 454.712 68.938C459.389 68.938 463.578 65.528 465.332 60.17L474.198 65.041C470.885 73.323 463.286 78.681 454.712 78.681Z" fill="black"/>
</g>
<defs>
<clipPath id="clip0_16865_73901">
<rect width="475" height="79" fill="white"/>
</clipPath>
</defs>
</svg>
